<svg width="20" height="20" viewBox="0 0 20 20" fill="none" xmlns="http://www.w3.org/2000/svg">
<path fill-rule="evenodd" clip-rule="evenodd" d="M10 0.25C15.4068 0.25 19.75 4.59318 19.75 10C19.75 15.4068 15.4068 19.75 10 19.75C4.59318 19.75 0.25 15.4068 0.25 10C0.25 4.59318 4.59318 0.25 10 0.25ZM10 1.57955C5.34659 1.57955 1.57955 5.34659 1.57955 10C1.57955 14.6534 5.34659 18.4205 10 18.4205C14.6534 18.4205 18.4205 14.6534 18.4205 10C18.4205 5.34659 14.6534 1.57955 10 1.57955ZM10 12.625C10.6213 12.625 11.125 13.1287 11.125 13.75C11.125 14.3713 10.6213 14.875 10 14.875C9.37868 14.875 8.875 14.3713 8.875 13.75C8.875 13.1287 9.37868 12.625 10 12.625ZM10.75 5.5V11.5H9.25V5.5H10.75Z" fill="#000094"/>
</svg>
