<svg width="107" height="59" viewBox="0 0 107 59" fill="none" xmlns="http://www.w3.org/2000/svg">
<path d="M50.9988 48.3137H47.5141C47.1721 48.3137 46.8882 48.5977 46.8882 48.9397C46.8882 49.301 47.1657 49.5914 47.5141 49.5914H50.9988C51.3537 49.5914 51.6247 49.3139 51.6247 48.9397C51.6312 48.5912 51.3537 48.3137 50.9988 48.3137Z" fill="#000094"/>
<path d="M69.4545 3.4004C69.2803 3.4004 69.1125 3.33586 68.977 3.20679L66.9313 1.16118C66.6668 0.896608 66.6668 0.470698 66.9313 0.206122C67.1959 -0.0584535 67.6218 -0.0584535 67.8799 0.206122L69.9256 2.25175C70.1902 2.51633 70.1902 2.94222 69.9256 3.20679C69.7965 3.33586 69.6287 3.4004 69.4545 3.4004Z" fill="#000094"/>
<path d="M103.378 3.4004C103.204 3.4004 103.036 3.33586 102.901 3.20679C102.636 2.94222 102.636 2.51633 102.901 2.25175L104.946 0.206122C105.211 -0.0584535 105.637 -0.0584535 105.895 0.206122C106.159 0.470698 106.159 0.896608 105.895 1.16118L103.849 3.20679C103.727 3.33586 103.552 3.4004 103.378 3.4004Z" fill="#000094"/>
<path d="M67.4089 39.3698C67.2346 39.3698 67.0669 39.3052 66.9313 39.1762C66.6668 38.9116 66.6668 38.4857 66.9313 38.2211L68.977 36.1755C69.2415 35.9109 69.6675 35.9109 69.9256 36.1755C70.1902 36.4401 70.1902 36.866 69.9256 37.1306L67.8799 39.1762C67.7509 39.3052 67.5831 39.3698 67.4089 39.3698Z" fill="#000094"/>
<path d="M105.424 39.3698C105.249 39.3698 105.082 39.3052 104.946 39.1762L102.901 37.1306C102.636 36.866 102.636 36.4401 102.901 36.1755C103.165 35.9109 103.591 35.9109 103.849 36.1755L105.895 38.2211C106.159 38.4857 106.159 38.9116 105.895 39.1762C105.772 39.3052 105.598 39.3698 105.424 39.3698Z" fill="#000094"/>
<path d="M76.5015 3.83268C76.2757 3.83268 76.0498 3.71654 75.9207 3.50359L74.4301 1.02561C74.2365 0.709414 74.3397 0.296403 74.6624 0.102811C74.9786 -0.0907815 75.3916 0.0124779 75.5852 0.335131L77.0758 2.81311C77.2694 3.12931 77.1662 3.5423 76.8435 3.73589C76.7403 3.80042 76.6177 3.83268 76.5015 3.83268Z" fill="#000094"/>
<path d="M83.1802 4.18763C82.864 4.18763 82.5866 3.96823 82.522 3.64558L81.9541 0.806212C81.8832 0.438387 82.1155 0.0899342 82.4833 0.0124974C82.8511 -0.0584863 83.1996 0.180282 83.277 0.541654L83.8449 3.381C83.9159 3.74882 83.6836 4.09728 83.3158 4.17471C83.2706 4.18762 83.2254 4.18763 83.1802 4.18763Z" fill="#000094"/>
<path d="M83.3352 11.1247C83.0512 11.1247 82.7931 10.944 82.6963 10.6665L81.78 7.92395C81.6638 7.56903 81.851 7.18832 82.2059 7.07216C82.5608 6.95601 82.9415 7.14315 83.0577 7.49807L83.974 10.2406C84.0902 10.5955 83.903 10.9763 83.5481 11.0924C83.4771 11.1118 83.4062 11.1247 83.3352 11.1247Z" fill="#000094"/>
<path d="M96.3317 3.83274C96.2156 3.83274 96.0929 3.80048 95.9832 3.73595C95.667 3.54235 95.5638 3.12936 95.7509 2.81316L97.2416 0.335186C97.4352 0.0189853 97.8482 -0.084274 98.1644 0.102865C98.4806 0.296457 98.5838 0.709468 98.3967 1.02567L96.906 3.50364C96.7834 3.7166 96.564 3.83274 96.3317 3.83274Z" fill="#000094"/>
<path d="M89.6525 4.18763C89.6073 4.18763 89.5622 4.18117 89.517 4.17471C89.1492 4.10373 88.9169 3.74882 88.9878 3.381L89.5557 0.541654C89.6267 0.180282 89.9881 -0.0584863 90.3494 0.0124974C90.7173 0.0834811 90.9496 0.438387 90.8786 0.806212L90.3107 3.64558C90.2462 3.96823 89.9687 4.18763 89.6525 4.18763Z" fill="#000094"/>
<path d="M89.4974 11.1247C89.4265 11.1247 89.3555 11.1118 89.2845 11.0924C88.9296 10.9763 88.7424 10.5955 88.8586 10.2406L89.7749 7.49807C89.8911 7.14315 90.2783 6.95601 90.6267 7.07216C90.9817 7.18832 91.1688 7.56903 91.0526 7.92395L90.1363 10.6665C90.0395 10.944 89.7814 11.1247 89.4974 11.1247Z" fill="#000094"/>
<path d="M75.0104 39.3698C74.8943 39.3698 74.7717 39.3375 74.662 39.273C74.3458 39.0794 74.2425 38.6664 74.4296 38.3502L75.9203 35.8722C76.1139 35.556 76.5269 35.4527 76.8431 35.6399C77.1593 35.8335 77.2625 36.2465 77.0754 36.5627L75.5848 39.0406C75.4621 39.2536 75.2427 39.3698 75.0104 39.3698Z" fill="#000094"/>
<path d="M82.6188 39.3698C82.5736 39.3698 82.5285 39.3633 82.4833 39.3569C82.1155 39.2859 81.8832 38.931 81.9541 38.5631L82.522 35.7238C82.593 35.3624 82.9544 35.1236 83.3158 35.1946C83.6836 35.2656 83.9159 35.6205 83.8449 35.9884L83.277 38.8277C83.2125 39.1504 82.9286 39.3698 82.6188 39.3698Z" fill="#000094"/>
<path d="M82.4247 32.3424C82.3537 32.3424 82.2827 32.3295 82.2118 32.3101C81.8568 32.1939 81.6697 31.8132 81.7858 31.4583L82.7022 28.7157C82.8183 28.3608 83.1991 28.1737 83.554 28.2898C83.9089 28.406 84.0961 28.7867 83.9799 29.1416L83.0636 31.8842C82.9668 32.1681 82.7022 32.3424 82.4247 32.3424Z" fill="#000094"/>
<path d="M97.8223 39.3698C97.5965 39.3698 97.3706 39.2536 97.2415 39.0406L95.7509 36.5627C95.5573 36.2465 95.6605 35.8335 95.9832 35.6399C96.2994 35.4463 96.7124 35.5496 96.906 35.8722L98.3966 38.3502C98.5902 38.6664 98.487 39.0794 98.1643 39.273C98.0611 39.3375 97.9385 39.3698 97.8223 39.3698Z" fill="#000094"/>
<path d="M90.2203 39.3698C89.9041 39.3698 89.6266 39.1504 89.5621 38.8277L88.9942 35.9884C88.9232 35.6205 89.1555 35.2721 89.5233 35.1946C89.8912 35.1236 90.2396 35.3624 90.3171 35.7238L90.8849 38.5631C90.9559 38.9245 90.7236 39.2794 90.3558 39.3569C90.3042 39.3633 90.259 39.3698 90.2203 39.3698Z" fill="#000094"/>
<path d="M90.4138 32.3424C90.1299 32.3424 89.8717 32.1617 89.7749 31.8842L88.8586 29.1416C88.7424 28.7867 88.9296 28.406 89.2845 28.2898C89.6394 28.1737 90.0201 28.3608 90.1363 28.7157L91.0526 31.4583C91.1688 31.8132 90.9817 32.1939 90.6267 32.3101C90.5558 32.3359 90.4783 32.3424 90.4138 32.3424Z" fill="#000094"/>
<path d="M98.4027 32.3424C98.2285 32.3424 98.0607 32.2778 97.9252 32.1488L95.8796 30.1032C95.615 29.8386 95.615 29.4127 95.8796 29.1481C96.1442 28.8835 96.57 28.8835 96.8282 29.1481L98.8738 31.1937C99.1384 31.4583 99.1384 31.8842 98.8738 32.1488C98.7447 32.2778 98.5705 32.3424 98.4027 32.3424Z" fill="#000094"/>
<path d="M102.946 10.4471C102.72 10.4471 102.494 10.331 102.365 10.118C102.172 9.80182 102.275 9.38235 102.597 9.19521L105.075 7.70456C105.392 7.51096 105.805 7.61422 105.998 7.93688C106.192 8.25308 106.089 8.66607 105.766 8.85966L103.288 10.3503C103.185 10.4148 103.062 10.4471 102.946 10.4471Z" fill="#000094"/>
<path d="M102.591 17.126C102.275 17.126 101.997 16.9066 101.933 16.584C101.862 16.2162 102.094 15.8677 102.462 15.7903L105.301 15.2224C105.669 15.1514 106.017 15.3902 106.095 15.7515C106.166 16.1194 105.934 16.4678 105.566 16.5453L102.726 17.1131C102.675 17.126 102.63 17.126 102.591 17.126Z" fill="#000094"/>
<path d="M95.6537 17.2809C95.3698 17.2809 95.1116 17.1002 95.0149 16.8227C94.8987 16.4678 95.0858 16.0871 95.4408 15.9709L98.1833 15.0546C98.5382 14.9385 98.919 15.1256 99.0351 15.4805C99.1513 15.8354 98.9641 16.2162 98.6092 16.3323L95.8667 17.2487C95.7957 17.268 95.7247 17.2809 95.6537 17.2809Z" fill="#000094"/>
<path d="M105.423 31.768C105.307 31.768 105.185 31.7358 105.075 31.6712L102.597 30.1806C102.281 29.987 102.178 29.574 102.365 29.2578C102.558 28.9416 102.971 28.8383 103.287 29.0255L105.765 30.5161C106.082 30.7097 106.185 31.1227 105.998 31.4389C105.875 31.6519 105.649 31.768 105.423 31.768Z" fill="#000094"/>
<path d="M105.424 24.1663C105.379 24.1663 105.334 24.1599 105.288 24.1534L102.449 23.5856C102.081 23.5146 101.849 23.1597 101.92 22.7918C101.991 22.4305 102.346 22.1917 102.714 22.2627L105.553 22.8306C105.921 22.9015 106.153 23.2565 106.082 23.6243C106.024 23.9405 105.74 24.1663 105.424 24.1663Z" fill="#000094"/>
<path d="M98.4026 24.3535C98.3316 24.3535 98.2606 24.3406 98.1897 24.3212L95.4471 23.4049C95.0922 23.2887 94.905 22.908 95.0212 22.5531C95.1374 22.1981 95.5181 22.011 95.873 22.1272L98.6156 23.0435C98.9705 23.1597 99.1576 23.5404 99.0415 23.8953C98.9447 24.1792 98.6801 24.3535 98.4026 24.3535Z" fill="#000094"/>
<path d="M69.8868 10.4471C69.7707 10.4471 69.6481 10.4148 69.5384 10.3503L67.0604 8.85965C66.7442 8.66606 66.6409 8.25307 66.8281 7.93687C67.0217 7.62067 67.4347 7.51741 67.7509 7.70455L70.2289 9.19521C70.5451 9.38235 70.6483 9.80181 70.4612 10.118C70.3386 10.331 70.1191 10.4471 69.8868 10.4471Z" fill="#000094"/>
<path d="M70.2482 17.126C70.203 17.126 70.1579 17.1196 70.1127 17.1131L67.2733 16.5453C66.9055 16.4743 66.6732 16.1194 66.7442 15.7515C66.8152 15.3902 67.1701 15.1514 67.5379 15.2224L70.3773 15.7903C70.7451 15.8612 70.9774 16.2162 70.9064 16.584C70.8419 16.9066 70.558 17.126 70.2482 17.126Z" fill="#000094"/>
<path d="M77.1785 17.2809C77.1075 17.2809 77.0365 17.268 76.9655 17.2486L74.223 16.3323C73.868 16.2161 73.6809 15.8354 73.7971 15.4805C73.9132 15.1256 74.294 14.9384 74.6489 15.0546L77.3914 15.9709C77.7463 16.0871 77.9335 16.4678 77.8173 16.8227C77.7205 17.1002 77.4624 17.2809 77.1785 17.2809Z" fill="#000094"/>
<path d="M67.4088 31.7681C67.1829 31.7681 66.9571 31.6519 66.828 31.439C66.6344 31.1228 66.7377 30.7098 67.0604 30.5162L69.5383 29.0255C69.8545 28.8319 70.2675 28.9352 70.4611 29.2578C70.6547 29.574 70.5515 29.987 70.2288 30.1806L67.7508 31.6713C67.6476 31.7358 67.525 31.7681 67.4088 31.7681Z" fill="#000094"/>
<path d="M67.4087 24.1663C67.0925 24.1663 66.8151 23.9469 66.7505 23.6243C66.6796 23.2629 66.9119 22.908 67.2797 22.8305L70.119 22.2626C70.4869 22.1917 70.8353 22.4304 70.9128 22.7918C70.9838 23.1596 70.7514 23.5081 70.3836 23.5855L67.5443 24.1534C67.4991 24.1599 67.4539 24.1663 67.4087 24.1663Z" fill="#000094"/>
<path d="M74.4359 24.3535C74.152 24.3535 73.8939 24.1728 73.7971 23.8953C73.6809 23.5404 73.868 23.1597 74.223 23.0435L76.9655 22.1272C77.3204 22.011 77.7012 22.1981 77.8173 22.5531C77.9335 22.908 77.7463 23.2887 77.3914 23.4049L74.6489 24.3212C74.5779 24.347 74.5069 24.3535 74.4359 24.3535Z" fill="#000094"/>
<path d="M83.9155 18.5328C83.5735 18.5328 83.225 18.4037 82.9669 18.1392L80.9213 16.0935C80.3921 15.5708 80.3921 14.7126 80.9213 14.1899C81.4504 13.6607 82.3022 13.6607 82.8249 14.1899L84.8706 16.2355C85.3997 16.7647 85.3997 17.61 84.8706 18.1392C84.606 18.4037 84.264 18.5328 83.9155 18.5328Z" fill="#000094"/>
<path d="M88.9172 18.5328C88.5752 18.5328 88.2268 18.4037 87.9686 18.1392C87.4395 17.61 87.4395 16.7647 87.9686 16.2355L90.0143 14.1899C90.537 13.6607 91.3952 13.6607 91.9179 14.1899C92.4471 14.7126 92.4471 15.5708 91.9179 16.0935L89.8723 18.1392C89.6077 18.4037 89.2593 18.5328 88.9172 18.5328Z" fill="#000094"/>
<path d="M81.8699 25.5796C81.5279 25.5796 81.1794 25.4505 80.9213 25.1859C80.3921 24.6568 80.3921 23.805 80.9213 23.2823L82.9669 21.2366C83.4961 20.7075 84.3479 20.7075 84.8706 21.2366C85.3997 21.7593 85.3997 22.6176 84.8706 23.1403L82.8249 25.1859C82.5604 25.4505 82.2183 25.5796 81.8699 25.5796Z" fill="#000094"/>
<path d="M90.9629 25.5796C90.6208 25.5796 90.2724 25.4505 90.0143 25.1859L87.9686 23.1403C87.4395 22.6176 87.4395 21.7658 87.9686 21.2366C88.4913 20.7075 89.3496 20.7075 89.8723 21.2366L91.9179 23.2823C92.4471 23.8114 92.4471 24.6632 91.9179 25.1859C91.6533 25.4505 91.3049 25.5796 90.9629 25.5796Z" fill="#000094"/>
<path d="M58.1614 48.9074L62.8011 44.2676C63.0657 44.0031 63.0657 43.5772 62.8011 43.3126C62.5366 43.048 62.1107 43.048 61.8461 43.3126L57.2063 47.9524L52.5666 43.3126C52.302 43.048 51.8761 43.048 51.6115 43.3126C51.3469 43.5772 51.3469 44.0031 51.6115 44.2676L56.2513 48.9074L51.6115 53.5472C51.3469 53.8117 51.3469 54.2376 51.6115 54.5022C51.7406 54.6313 51.9148 54.6958 52.089 54.6958C52.2633 54.6958 52.431 54.6313 52.5666 54.5022L57.2063 49.8625L61.8461 54.5022C61.9751 54.6313 62.1494 54.6958 62.3236 54.6958C62.4978 54.6958 62.6721 54.6313 62.8011 54.5022C63.0657 54.2376 63.0657 53.8117 62.8011 53.5472L58.1614 48.9074Z" fill="#000094"/>
<path d="M74.4362 32.3424C74.262 32.3424 74.0942 32.2778 73.9587 32.1488C73.6941 31.8842 73.6941 31.4583 73.9587 31.1937L76.0043 29.1481C76.2689 28.8835 76.6948 28.8835 76.9529 29.1481C77.2175 29.4127 77.2175 29.8386 76.9529 30.1032L74.9073 32.1488C74.7782 32.2778 74.604 32.3424 74.4362 32.3424Z" fill="#000094"/>
<path d="M76.4818 10.4213C76.3076 10.4213 76.1398 10.3568 76.0043 10.2277L73.9587 8.18209C73.6941 7.91751 73.6941 7.4916 73.9587 7.22703C74.2233 6.96245 74.6492 6.96245 74.9073 7.22703L76.9529 9.27266C77.2175 9.53723 77.2175 9.96312 76.9529 10.2277C76.8238 10.3568 76.6496 10.4213 76.4818 10.4213Z" fill="#000094"/>
<path d="M96.3571 10.4213C96.1829 10.4213 96.0151 10.3568 95.8796 10.2277C95.615 9.96312 95.615 9.53723 95.8796 9.27266L97.9252 7.22703C98.1898 6.96245 98.6157 6.96245 98.8738 7.22703C99.1384 7.4916 99.1384 7.91751 98.8738 8.18209L96.8282 10.2277C96.6991 10.3568 96.5249 10.4213 96.3571 10.4213Z" fill="#000094"/>
<path d="M23.2955 48.959C23.2955 51.3338 21.4951 53.2632 19.2817 53.2632C17.0683 53.2632 15.2679 51.3338 15.2679 48.959C15.2679 46.5714 17.0683 44.629 19.2817 44.629C21.4951 44.6355 23.2955 46.5778 23.2955 48.959ZM23.9924 43.261C23.5988 43.261 23.2955 43.5643 23.2955 43.9579V45.1453C22.2759 43.9579 20.8111 43.261 19.2817 43.261C16.3004 43.261 13.874 45.8164 13.874 48.959C13.874 52.1017 16.3004 54.6635 19.2817 54.6635C20.7982 54.6635 22.2695 53.9601 23.2955 52.7599V53.9666C23.2955 54.3473 23.6117 54.6635 23.9924 54.6635C24.3732 54.6635 24.6894 54.3409 24.6894 53.9666V43.9579C24.6894 43.5643 24.3861 43.261 23.9924 43.261Z" fill="#000094"/>
<path d="M29.3034 39.3246C28.9226 39.3246 28.6064 39.6472 28.6064 40.0215V40.5442C28.6064 40.9443 28.9226 41.2863 29.3034 41.2863C29.7035 41.2863 30.0261 40.9508 30.0261 40.5442V40.0215C30.0197 39.6408 29.697 39.3246 29.3034 39.3246Z" fill="#000094"/>
<path d="M29.3034 43.261C28.9097 43.261 28.6064 43.5643 28.6064 43.9579V53.9666C28.6064 54.3473 28.9226 54.6635 29.3034 54.6635C29.7035 54.6635 30.0261 54.3473 30.0261 53.9666V43.9579C30.0197 43.5578 29.7099 43.261 29.3034 43.261Z" fill="#000094"/>
<path d="M42.6935 48.959C42.6935 51.3338 40.893 53.2632 38.6796 53.2632C36.4662 53.2632 34.6658 51.3338 34.6658 48.959C34.6658 46.5714 36.4662 44.629 38.6796 44.629C40.893 44.6355 42.6935 46.5778 42.6935 48.959ZM43.3904 43.261C42.9967 43.261 42.6935 43.5643 42.6935 43.9579V45.1453C41.6739 43.9579 40.209 43.261 38.6796 43.261C35.6983 43.261 33.272 45.8164 33.272 48.959C33.272 52.1017 35.6983 54.6635 38.6796 54.6635C40.1961 54.6635 41.6674 53.9601 42.6935 52.7599V53.9666C42.6935 54.3473 43.0096 54.6635 43.3904 54.6635C43.7711 54.6635 44.0873 54.3409 44.0873 53.9666V43.9579C44.0873 43.5643 43.784 43.261 43.3904 43.261Z" fill="#000094"/>
<path d="M9.35695 48.9203C9.35695 51.295 7.56945 53.2245 5.36896 53.2245C3.18137 53.2245 1.40031 51.295 1.40031 48.9203C1.40031 46.5714 3.18137 44.6613 5.36896 44.6613C7.563 44.6548 9.35695 46.5714 9.35695 48.9203ZM10.0732 43.261C9.6796 43.261 9.3505 43.5707 9.3505 43.9579V45.1388C8.35027 43.9579 6.89187 43.261 5.3625 43.261C2.40699 43.261 0 45.797 0 48.9203C0 52.05 2.40699 54.599 5.3625 54.599C6.90478 54.599 8.36318 53.9085 9.3505 52.7276V53.631C9.3505 55.8573 7.59526 57.5997 5.3625 57.5997C4.79463 57.5997 4.28484 57.49 3.74923 57.2512C3.20717 57.0124 2.78773 56.7156 2.43281 56.3349C2.31665 56.1865 2.14887 56.0961 1.96819 56.0832C1.7875 56.0767 1.58746 56.1413 1.44549 56.2768C1.1551 56.522 1.17446 56.9544 1.38096 57.2641C1.86494 57.7546 2.39409 58.1482 2.9297 58.4128L2.99422 58.4644C3.03294 58.4837 3.07167 58.4967 3.11038 58.5096L3.24589 58.5676C3.29106 58.5934 3.33624 58.6128 3.38786 58.6322C4.0009 58.8774 4.65266 59 5.32378 59C5.69161 59 6.06588 58.9613 6.44016 58.8838L6.48533 58.8774C6.84671 58.8 7.16291 58.7032 7.47265 58.5741C7.75659 58.4515 8.03407 58.3031 8.29865 58.1288C8.37608 58.0772 8.45352 58.0191 8.53096 57.9546L8.62775 57.8772C8.75681 57.7804 8.87942 57.6771 9.00203 57.5739C9.13109 57.4512 9.2537 57.3222 9.37631 57.1867C9.41502 57.1415 9.47956 57.0641 9.47956 57.0641C10.312 56.0768 10.7508 54.8894 10.7508 53.6375V43.9708C10.7508 43.5836 10.4346 43.261 10.0732 43.261Z" fill="#000094"/>
</svg>
