<svg width="16" height="16" viewBox="0 0 16 16" fill="none" xmlns="http://www.w3.org/2000/svg">
<path d="M7.99996 3C6.15829 3 4.66663 4.49167 4.66663 6.33333H6.33329C6.33329 5.41667 7.08329 4.66667 7.99996 4.66667C8.91663 4.66667 9.66663 5.41667 9.66663 6.33333C9.66663 7.06601 9.18349 7.43634 8.642 7.8514C7.95173 8.38049 7.16663 9.06311 7.16663 10H8.83329C8.83329 9.5 9.42581 9.06939 10.0339 8.53795C10.6749 7.97777 11.3333 7.40243 11.3333 6.33333C11.3333 4.49167 9.84163 3 7.99996 3Z" fill="#B3B3B3"/>
<path d="M8 13C8.55229 13 9 12.5523 9 12C9 11.4477 8.55229 11 8 11C7.44772 11 7 11.4477 7 12C7 12.5523 7.44772 13 8 13Z" fill="#B3B3B3"/>
<path fill-rule="evenodd" clip-rule="evenodd" d="M16 8C16 12.4183 12.4183 16 8 16C3.58172 16 0 12.4183 0 8C0 3.58172 3.58172 0 8 0C12.4183 0 16 3.58172 16 8ZM14.5 8C14.5 11.5899 11.5899 14.5 8 14.5C4.41015 14.5 1.5 11.5899 1.5 8C1.5 4.41015 4.41015 1.5 8 1.5C11.5899 1.5 14.5 4.41015 14.5 8Z" fill="#B3B3B3"/>
</svg>
