<svg width="14" height="14" viewBox="0 0 14 14" fill="none" xmlns="http://www.w3.org/2000/svg">
<path d="M13.2688 12.6062L7.66253 6.99999L13.2688 1.39374C13.3942 1.27688 13.4458 1.10089 13.4034 0.934806C13.361 0.768723 13.2313 0.639035 13.0652 0.596621C12.8991 0.554206 12.7231 0.605828 12.6063 0.731237L7.00003 6.33749L1.39378 0.731237C1.20908 0.559137 0.92127 0.564215 0.742763 0.742723C0.564255 0.92123 0.559177 1.20904 0.731276 1.39374L6.33753 6.99999L0.731276 12.6062C0.559177 12.7909 0.564255 13.0787 0.742763 13.2573C0.92127 13.4358 1.20908 13.4408 1.39378 13.2687L7.00003 7.66249L12.6063 13.2687C12.7231 13.3941 12.8991 13.4458 13.0652 13.4034C13.2313 13.3609 13.361 13.2313 13.4034 13.0652C13.4458 12.8991 13.3942 12.7231 13.2688 12.6062Z" fill="#000094"/>
</svg>
